<svg width="500" height="500" viewBox="0 0 500 500" fill="none" xmlns="http://www.w3.org/2000/svg">
<path fill-rule="evenodd" clip-rule="evenodd" d="M102 77.8334C101 71.8334 104.333 65.5 110 62.5C113.5 60.5 144.5 60.1666 295.334 60H476.334L481.5 64.3334C485.834 67.8334 486.666 69.8334 486.666 75.6666C486.666 81.8334 482.5 90.1666 454 139.334C436 170.334 404.334 225 383.666 260.834C363 296.5 346 326 345.834 326.334C345.666 326.5 342.334 321.5 338.5 315C334.666 308.5 330.834 303.666 330 304.166L330.5 299.834C331.334 300 342.5 282 355.334 259.666L356.611 257.442C369.338 235.296 386.473 205.476 395.5 190C404.666 174 421.5 144.834 432.834 125.334C444.166 105.833 454 88.6666 454.5 87.3334C455.166 85.3334 433.666 85 294.166 85H133L136.334 90.3334C137.498 92.2383 141.148 98.5781 145.706 106.494C148.326 111.045 151.246 116.117 154.166 121.167C162 135.166 169.5 146.875 170 146.875L170.625 150.175C169.158 149.254 167.109 151.881 162.666 160C159 166.5 155.666 171.666 155.166 171.666C153.166 171.666 102.667 82.5 102 77.8334Z" fill="#ffffff"/>
<path d="M200 200C185.166 173.834 172 151.5 171 150.5C170.879 150.365 170.754 150.257 170.625 150.175L170 146.875C170.666 146.875 176 137.5 182.334 126.5C195.334 103.834 200.166 99.8336 210.334 102.667C217.166 104.667 213.5 98.8336 277.166 209.334C305.834 259 329.834 299.667 330.5 299.834L330 304.166C329.166 304.666 321.166 317.834 312.334 333.5C303.5 349 295.834 362 295.166 362.334C294 363.167 276.5 333.334 200 200Z" fill="#ffffff"/>
<path d="M114.167 244.5C92.1667 282.666 71.0001 319.166 67.3335 325.666C18.3335 409.834 13.3335 418.834 13.3335 425C13.3335 429.5 14.5001 432.5 17.6667 435.666L22.1667 440H205.834H389.5L394 435.666C401.5 428 400.166 422.5 383.334 393.334C375.166 379.166 363.334 358.666 357.166 348C351 337.166 345.334 329 344.666 329.666C344.166 330.334 335.334 345 325.334 362.5C310 389.334 306.334 394.666 301.166 397.166C295.834 399.834 294.666 400 289.334 397.666C282.666 394.834 282.666 395 253.834 345C242 324.334 215 277.666 194 241.166C173 204.834 155.5 175 155 175C154.5 175 136.166 206.334 114.167 244.5Z" fill="#ffffff"/>
</svg>
